# xmcd CD database file
#
# Track frame offsets:
#	150
#	19927
#	35354
#	50784
#	58361
#	74050
#	89493
#	105725
#	121616
#	137029
#
# Disc length: 1934 seconds
#
# Revision: 4
# Processed by: cddbd v1.5.1PL0 Copyright (c) Steve Scherf et al.
# Submitted via: CDex 1.51
#
DISCID=95078c0a
DTITLE=Doobadoo - Doobadoo 
DYEAR=2005
DGENRE=Jazz
TTITLE0=Keb Paen Din
TTITLE1=Mai Chai Poo Chai
TTITLE2=Wi Na Tee
TTITLE3=Sukhumvit
TTITLE4=Muer Kuen Nee
TTITLE5=Poo Fung Tee Ruk Lung Mic
TTITLE6=Nah Nao
TTITLE7=Fon Jah
TTITLE8=Kor
TTITLE9=Khun Nai Ma Karm
EXTD=Ripped by MiCurseZ\n YEAR: 2005
EXTT0=
EXTT1=
EXTT2=
EXTT3=
EXTT4=
EXTT5=
EXTT6=
EXTT7=
EXTT8=
EXTT9=
PLAYORDER=
